<mxfile host="Electron" agent="Mozilla/5.0 (Windows NT 10.0; Win64; x64) AppleWebKit/537.36 (KHTML, like Gecko) draw.io/24.7.5 Chrome/126.0.6478.183 Electron/31.3.0 Safari/537.36" version="24.7.5">
  <diagram name="第 1 页" id="LvxOuUE3VNzwCVR14Q7d">
    <mxGraphModel dx="961" dy="681" grid="1" gridSize="10" guides="1" tooltips="1" connect="1" arrows="1" fold="1" page="1" pageScale="1" pageWidth="827" pageHeight="1169" math="0" shadow="0">
      <root>
        <mxCell id="0" />
        <mxCell id="1" parent="0" />
        <mxCell id="kGoOlKwpdO1DUSLh-qhl-33" value="" style="rounded=0;whiteSpace=wrap;html=1;" vertex="1" parent="1">
          <mxGeometry x="178" y="250" width="460" height="230" as="geometry" />
        </mxCell>
        <mxCell id="kGoOlKwpdO1DUSLh-qhl-1" value="用户" style="shape=umlActor;verticalLabelPosition=bottom;verticalAlign=top;html=1;outlineConnect=0;" vertex="1" parent="1">
          <mxGeometry x="60" y="360" width="30" height="60" as="geometry" />
        </mxCell>
        <mxCell id="kGoOlKwpdO1DUSLh-qhl-2" value="系统管理员" style="shape=umlActor;verticalLabelPosition=bottom;verticalAlign=top;html=1;outlineConnect=0;" vertex="1" parent="1">
          <mxGeometry x="700" y="360" width="30" height="60" as="geometry" />
        </mxCell>
        <mxCell id="kGoOlKwpdO1DUSLh-qhl-3" value="&lt;font style=&quot;font-size: 14px;&quot;&gt;宠物AI&lt;/font&gt;" style="text;strokeColor=none;fillColor=none;html=1;fontSize=24;fontStyle=1;verticalAlign=middle;align=center;" vertex="1" parent="1">
          <mxGeometry x="358" y="250" width="100" height="40" as="geometry" />
        </mxCell>
        <mxCell id="kGoOlKwpdO1DUSLh-qhl-5" value="宠物问题交流" style="ellipse;whiteSpace=wrap;html=1;" vertex="1" parent="1">
          <mxGeometry x="190" y="360" width="87.5" height="40" as="geometry" />
        </mxCell>
        <mxCell id="kGoOlKwpdO1DUSLh-qhl-18" value="" style="endArrow=none;html=1;rounded=0;entryX=0;entryY=0.5;entryDx=0;entryDy=0;" edge="1" parent="1" target="kGoOlKwpdO1DUSLh-qhl-5">
          <mxGeometry width="50" height="50" relative="1" as="geometry">
            <mxPoint x="90" y="380" as="sourcePoint" />
            <mxPoint x="220" y="90" as="targetPoint" />
          </mxGeometry>
        </mxCell>
        <mxCell id="kGoOlKwpdO1DUSLh-qhl-25" value="获得解答" style="ellipse;whiteSpace=wrap;html=1;" vertex="1" parent="1">
          <mxGeometry x="530" y="360" width="90" height="40" as="geometry" />
        </mxCell>
        <mxCell id="kGoOlKwpdO1DUSLh-qhl-26" value="" style="endArrow=block;dashed=1;endFill=0;endSize=12;html=1;rounded=0;entryX=1;entryY=0.5;entryDx=0;entryDy=0;exitX=0;exitY=0.5;exitDx=0;exitDy=0;" edge="1" parent="1" source="kGoOlKwpdO1DUSLh-qhl-25" target="kGoOlKwpdO1DUSLh-qhl-39">
          <mxGeometry width="160" relative="1" as="geometry">
            <mxPoint x="114" y="150" as="sourcePoint" />
            <mxPoint x="314" y="210" as="targetPoint" />
          </mxGeometry>
        </mxCell>
        <mxCell id="kGoOlKwpdO1DUSLh-qhl-27" value="《extend》" style="edgeLabel;html=1;align=center;verticalAlign=middle;resizable=0;points=[];" vertex="1" connectable="0" parent="kGoOlKwpdO1DUSLh-qhl-26">
          <mxGeometry x="-0.1669" y="2" relative="1" as="geometry">
            <mxPoint as="offset" />
          </mxGeometry>
        </mxCell>
        <mxCell id="kGoOlKwpdO1DUSLh-qhl-31" value="" style="endArrow=none;html=1;rounded=0;entryX=1;entryY=0.5;entryDx=0;entryDy=0;exitX=0;exitY=0.3333333333333333;exitDx=0;exitDy=0;exitPerimeter=0;" edge="1" parent="1" source="kGoOlKwpdO1DUSLh-qhl-2" target="kGoOlKwpdO1DUSLh-qhl-25">
          <mxGeometry width="50" height="50" relative="1" as="geometry">
            <mxPoint x="100" y="390" as="sourcePoint" />
            <mxPoint x="217" y="390" as="targetPoint" />
          </mxGeometry>
        </mxCell>
        <mxCell id="kGoOlKwpdO1DUSLh-qhl-34" value="" style="endArrow=block;dashed=1;endFill=0;endSize=12;html=1;rounded=0;exitX=1;exitY=0.5;exitDx=0;exitDy=0;entryX=0;entryY=0.5;entryDx=0;entryDy=0;" edge="1" parent="1" source="kGoOlKwpdO1DUSLh-qhl-5" target="kGoOlKwpdO1DUSLh-qhl-36">
          <mxGeometry width="160" relative="1" as="geometry">
            <mxPoint x="400" y="430" as="sourcePoint" />
            <mxPoint x="380" y="320" as="targetPoint" />
          </mxGeometry>
        </mxCell>
        <mxCell id="kGoOlKwpdO1DUSLh-qhl-35" value="《include》" style="edgeLabel;html=1;align=center;verticalAlign=middle;resizable=0;points=[];" vertex="1" connectable="0" parent="kGoOlKwpdO1DUSLh-qhl-34">
          <mxGeometry x="-0.1669" y="2" relative="1" as="geometry">
            <mxPoint as="offset" />
          </mxGeometry>
        </mxCell>
        <mxCell id="kGoOlKwpdO1DUSLh-qhl-36" value="选择示例问题" style="ellipse;whiteSpace=wrap;html=1;" vertex="1" parent="1">
          <mxGeometry x="363" y="320" width="90" height="40" as="geometry" />
        </mxCell>
        <mxCell id="kGoOlKwpdO1DUSLh-qhl-39" value="在对话框输入" style="ellipse;whiteSpace=wrap;html=1;" vertex="1" parent="1">
          <mxGeometry x="368" y="400" width="90" height="40" as="geometry" />
        </mxCell>
        <mxCell id="kGoOlKwpdO1DUSLh-qhl-40" value="" style="endArrow=block;dashed=1;endFill=0;endSize=12;html=1;rounded=0;exitX=1;exitY=0.5;exitDx=0;exitDy=0;entryX=0;entryY=0.5;entryDx=0;entryDy=0;" edge="1" parent="1" source="kGoOlKwpdO1DUSLh-qhl-5" target="kGoOlKwpdO1DUSLh-qhl-39">
          <mxGeometry width="160" relative="1" as="geometry">
            <mxPoint x="288" y="390" as="sourcePoint" />
            <mxPoint x="400" y="300" as="targetPoint" />
          </mxGeometry>
        </mxCell>
        <mxCell id="kGoOlKwpdO1DUSLh-qhl-41" value="《include》" style="edgeLabel;html=1;align=center;verticalAlign=middle;resizable=0;points=[];" vertex="1" connectable="0" parent="kGoOlKwpdO1DUSLh-qhl-40">
          <mxGeometry x="-0.1669" y="2" relative="1" as="geometry">
            <mxPoint as="offset" />
          </mxGeometry>
        </mxCell>
        <mxCell id="kGoOlKwpdO1DUSLh-qhl-42" value="" style="endArrow=block;dashed=1;endFill=0;endSize=12;html=1;rounded=0;entryX=1;entryY=0.5;entryDx=0;entryDy=0;exitX=0;exitY=0.5;exitDx=0;exitDy=0;" edge="1" parent="1" source="kGoOlKwpdO1DUSLh-qhl-25" target="kGoOlKwpdO1DUSLh-qhl-36">
          <mxGeometry width="160" relative="1" as="geometry">
            <mxPoint x="540" y="390" as="sourcePoint" />
            <mxPoint x="468" y="430" as="targetPoint" />
          </mxGeometry>
        </mxCell>
        <mxCell id="kGoOlKwpdO1DUSLh-qhl-43" value="《extend》" style="edgeLabel;html=1;align=center;verticalAlign=middle;resizable=0;points=[];" vertex="1" connectable="0" parent="kGoOlKwpdO1DUSLh-qhl-42">
          <mxGeometry x="-0.1669" y="2" relative="1" as="geometry">
            <mxPoint as="offset" />
          </mxGeometry>
        </mxCell>
      </root>
    </mxGraphModel>
  </diagram>
</mxfile>
